# xmcd
#
# Track frame offsets: 
#        150
#        19625
#        36588
#        60238
#        75604
#        89846
#        100922
#        120849
#        141372
#        161025
#        176268
#        206977
#        240454
#        253938
#        283081
#        308866
#
# Disc length: 4336 seconds
#
# Revision: 0
# Processed by: cddbd v1.5.2PL0 Copyright (c) Steve Scherf et al.
# Submitted via: ExactAudioCopy v0.95a5
#
DISCID=df10ee10
DTITLE=Maroon 5 - Itunes Session
DYEAR=2011
DGENRE=Pop
TTITLE0=The Air That Breathe (Bonus Track)
TTITLE1=Moves Like Jagger Remix (feat. Christina Aguilera Mac Miller)
TTITLE2=Come Away To The Water
TTITLE3=Never Gonna Leave This Bed (iTunes Session)
TTITLE4=Better That We Break (iTunes Session)
TTITLE5=Little Of You Time (iTunes Session)
TTITLE6=Secret (iTunes Session)
TTITLE7=She Will Be Loved (iTunes Session)
TTITLE8=Misery (iTunes Session)
TTITLE9=Moves Like Jagger (feat. Christina Aguilera)
TTITLE10=Misery (Bimbo Jones Club Mix)
TTITLE11=Misery (Bimbo Jones Dub Mix)
TTITLE12=Misery (Bimbo Jones Radio Edit)
TTITLE13=Misery (Cutmore Dub Mix)
TTITLE14=Misery (Cutmore Got Da Funk Mix)
TTITLE15=Misery (Cutmore Radio Edit)
EXTD=
EXTT0=
EXTT1=
EXTT2=
EXTT3=
EXTT4=
EXTT5=
EXTT6=
EXTT7=
EXTT8=
EXTT9=
EXTT10=
EXTT11=
EXTT12=
EXTT13=
EXTT14=
EXTT15=
PLAYORDER=
